<svg width="49" height="44" viewBox="0 0 49 44" fill="none" xmlns="http://www.w3.org/2000/svg">
<g clip-path="url(#clip0_711_1036)">
<path d="M33.6861 33.0002H6.9808C5.51876 33.0002 4.3335 31.9137 4.3335 30.5735V15.2602C4.3335 13.92 5.51876 12.8335 6.9808 12.8335H33.6861C35.1481 12.8335 36.3334 13.92 36.3334 15.2602V30.5735C36.3334 31.9137 35.1482 33.0002 33.6861 33.0002Z" stroke="#808A8A" stroke-width="1.5" stroke-miterlimit="10" stroke-linecap="round" stroke-linejoin="round"/>
<path d="M23.3289 25.6636C23.3289 27.1804 21.9874 26.3645 20.3327 26.3645C18.6779 26.3645 17.3364 27.1804 17.3364 25.6636C17.3364 24.1467 18.6779 22.917 20.3327 22.917C21.9874 22.917 23.3289 24.1466 23.3289 25.6636Z" stroke="#808A8A" stroke-width="1.5" stroke-miterlimit="10" stroke-linejoin="round"/>
<path d="M18.3328 20.1631C18.8537 20.1631 19.3527 19.7433 19.3286 19.2503C19.3045 18.7557 18.8911 18.3374 18.3328 18.3374C17.8119 18.3374 17.3128 18.7573 17.3369 19.2503C17.3611 19.7449 17.7745 20.1631 18.3328 20.1631ZM14.9967 21.9965C15.5176 21.9965 16.0166 21.5767 15.9925 21.0837C15.9684 20.5891 15.555 20.1708 14.9967 20.1708C14.4758 20.1708 13.9767 20.5907 14.0008 21.0837C14.025 21.5782 14.4384 21.9965 14.9967 21.9965ZM22.3328 20.1631C22.8537 20.1631 23.3527 19.7433 23.3286 19.2503C23.3045 18.7557 22.8911 18.3374 22.3328 18.3374C21.8119 18.3374 21.3128 18.7573 21.3369 19.2503C21.3611 19.7449 21.7745 20.1631 22.3328 20.1631ZM25.6689 21.9965C26.1898 21.9965 26.6888 21.5767 26.6647 21.0837C26.6406 20.5891 26.2272 20.1708 25.6689 20.1708C25.148 20.1708 24.6489 20.5907 24.673 21.0837C24.6972 21.5782 25.1106 21.9965 25.6689 21.9965Z" fill="#808A8A"/>
<path d="M24.3335 12.8335V9.2429C24.3335 8.18836 23.4009 7.3335 22.2505 7.3335H18.4165C17.2661 7.3335 16.3335 8.18836 16.3335 9.2429V12.8335M30.3335 12.8335V33.0002M10.3335 12.8335V33.0002M8.3335 33.0002H14.3335V36.6668H8.3335V33.0002ZM26.3335 33.0002H32.3335V36.6668H26.3335V33.0002Z" stroke="#808A8A" stroke-width="1.5" stroke-miterlimit="10" stroke-linecap="round" stroke-linejoin="round"/>
<path d="M43.8718 11.5351C42.6417 11.9431 41.2756 11.9411 40.0201 11.5104C38.3437 10.9539 36.9985 9.64272 36.3673 7.9683C35.5733 5.95591 36.0284 3.59247 37.4311 1.95142C38.237 1.0267 39.2549 0.360339 40.4508 0.0395597C40.7469 -0.0586644 41.1224 0.0822976 41.2549 0.291205C41.467 0.549561 41.5083 0.864586 41.356 1.16794C40.7319 2.41169 40.8094 3.82724 41.4641 5.03873C42.4975 6.78205 44.6898 7.48353 46.5694 6.67045C46.8656 6.57222 47.1995 6.5879 47.4686 6.82737C47.7187 7.00988 47.7789 7.38186 47.6836 7.66632C47.2338 9.05453 46.2757 10.2826 45.0185 11.0283C44.6729 11.2061 44.2818 11.3991 43.8718 11.5351ZM39.9248 1.57944C39.3514 1.83284 38.8499 2.2647 38.3747 2.81423C37.2344 4.10275 36.9395 5.95794 37.5215 7.52223C38.0243 8.84734 39.0853 9.87349 40.4165 10.3422C41.7478 10.8109 43.19 10.6613 44.3902 9.93449C45.1536 9.49163 45.7427 8.90432 46.1271 8.11938C43.9633 8.64744 41.612 7.65732 40.3703 5.66704C39.7005 4.44793 39.5319 2.94876 39.9248 1.57944Z" fill="#808A8A"/>
</g>
<defs>
<clipPath id="clip0_711_1036">
<rect width="48" height="44" fill="white" transform="translate(0.333496)"/>
</clipPath>
</defs>
</svg>
