<svg width="40" height="40" viewBox="0 0 40 40" fill="none" xmlns="http://www.w3.org/2000/svg">
<path fill-rule="evenodd" clip-rule="evenodd" d="M19.5 5C19.3185 5 19.1378 5.06095 18.9909 5.18133L3.27694 18.1337C2.96108 18.3943 2.90766 18.8491 3.15672 19.1714L5.51382 22.219C5.57902 22.3032 5.66144 22.3733 5.75591 22.425C5.85038 22.4768 5.95487 22.509 6.0628 22.5198C6.17074 22.5305 6.2798 22.5195 6.38313 22.4874C6.48647 22.4553 6.58185 22.4029 6.66329 22.3333L6.92886 22.1055V34.7143C6.92886 35.3208 7.17714 35.9021 7.61949 36.3303C7.83821 36.5427 8.09798 36.7112 8.38394 36.8261C8.66989 36.941 8.97641 37.0001 9.28595 37H29.7141C30.3395 37 30.939 36.7592 31.3806 36.3303C31.5996 36.1182 31.7733 35.8663 31.8918 35.589C32.0103 35.3117 32.0713 35.0145 32.0712 34.7143V22.1055L32.3368 22.3333C32.4183 22.4025 32.5138 22.4547 32.6171 22.4866C32.7203 22.5185 32.8293 22.5294 32.9371 22.5187C33.045 22.508 33.1494 22.4758 33.2438 22.4243C33.3383 22.3727 33.4208 22.3029 33.4862 22.219L35.8433 19.1714C35.9631 19.0161 36.0174 18.8223 35.9951 18.6295C35.9727 18.4367 35.8755 18.2594 35.7231 18.1337L20.0092 5.18133C19.867 5.06432 19.6865 5.00006 19.5 5ZM19.5 6.76229L34.1431 18.8301L32.739 20.6442L20.0202 9.7619C19.8764 9.63923 19.6915 9.57156 19.5 9.57156C19.3085 9.57156 19.1236 9.63923 18.9799 9.7619L6.26102 20.6442L4.85697 18.8301L19.5 6.76152V6.76229ZM19.5 11.3505L30.5336 20.7912C30.5123 20.8592 30.5009 20.9297 30.4998 21.0008V34.715C30.5001 34.8152 30.48 34.9144 30.4406 35.007C30.4012 35.0995 30.3434 35.1837 30.2704 35.2545C30.1973 35.3253 30.1106 35.3814 30.0151 35.4196C29.9197 35.4578 29.8174 35.4773 29.7141 35.477H9.28595C9.18268 35.4773 9.08038 35.4578 8.98491 35.4196C8.88944 35.3814 8.80271 35.3253 8.72969 35.2545C8.65667 35.1837 8.5988 35.0995 8.55943 35.007C8.52005 34.9144 8.49994 34.8152 8.50025 34.715V21.0008C8.49912 20.9297 8.48775 20.8592 8.46647 20.7912L19.5 11.3505ZM19.5 18.715C18.8854 18.7304 18.3013 18.978 17.8722 19.405C17.4431 19.832 17.203 20.4046 17.203 21.0008C17.203 21.597 17.4431 22.1696 17.8722 22.5965C18.3013 23.0235 18.8854 23.2711 19.5 23.2865C20.1146 23.2711 20.6987 23.0235 21.1278 22.5965C21.5569 22.1696 21.797 21.597 21.797 21.0008C21.797 20.4046 21.5569 19.832 21.1278 19.405C20.6987 18.978 20.1146 18.7304 19.5 18.715ZM19.5 20.2389C19.7084 20.2389 19.9082 20.3191 20.0556 20.462C20.2029 20.6049 20.2857 20.7987 20.2857 21.0008C20.2857 21.2028 20.2029 21.3966 20.0556 21.5395C19.9082 21.6824 19.7084 21.7627 19.5 21.7627C19.2916 21.7627 19.0918 21.6824 18.9445 21.5395C18.7971 21.3966 18.7143 21.2028 18.7143 21.0008C18.7143 20.7987 18.7971 20.6049 18.9445 20.462C19.0918 20.3191 19.2916 20.2389 19.5 20.2389ZM14.0001 21.7627C13.3855 21.7781 12.8014 22.0256 12.3723 22.4526C11.9433 22.8796 11.7031 23.4522 11.7031 24.0484C11.7031 24.6446 11.9433 25.2172 12.3723 25.6442C12.8014 26.0711 13.3855 26.3187 14.0001 26.3341C14.6147 26.3187 15.1988 26.0711 15.6279 25.6442C16.057 25.2172 16.2972 24.6446 16.2972 24.0484C16.2972 23.4522 16.057 22.8796 15.6279 22.4526C15.1988 22.0256 14.6147 21.7781 14.0001 21.7627ZM24.9999 21.7627C24.3853 21.7781 23.8012 22.0256 23.3721 22.4526C22.943 22.8796 22.7029 23.4522 22.7029 24.0484C22.7029 24.6446 22.943 25.2172 23.3721 25.6442C23.8012 26.0711 24.3853 26.3187 24.9999 26.3341C25.6145 26.3187 26.1986 26.0711 26.6277 25.6442C27.0568 25.2172 27.2969 24.6446 27.2969 24.0484C27.2969 23.4522 27.0568 22.8796 26.6277 22.4526C26.1986 22.0256 25.6145 21.7781 24.9999 21.7627ZM14.0001 23.2865C14.2085 23.2865 14.4084 23.3667 14.5557 23.5096C14.7031 23.6525 14.7858 23.8463 14.7858 24.0484C14.7858 24.2505 14.7031 24.4442 14.5557 24.5871C14.4084 24.73 14.2085 24.8103 14.0001 24.8103C13.7918 24.8103 13.5919 24.73 13.4446 24.5871C13.2972 24.4442 13.2144 24.2505 13.2144 24.0484C13.2144 23.8463 13.2972 23.6525 13.4446 23.5096C13.5919 23.3667 13.7918 23.2865 14.0001 23.2865ZM24.9999 23.2865C25.2083 23.2865 25.4081 23.3667 25.5555 23.5096C25.7028 23.6525 25.7856 23.8463 25.7856 24.0484C25.7856 24.2505 25.7028 24.4442 25.5555 24.5871C25.4081 24.73 25.2083 24.8103 24.9999 24.8103C24.7915 24.8103 24.5917 24.73 24.4443 24.5871C24.297 24.4442 24.2142 24.2505 24.2142 24.0484C24.2142 23.8463 24.297 23.6525 24.4443 23.5096C24.5917 23.3667 24.7915 23.2865 24.9999 23.2865ZM19.5 24.8103C18.1848 24.8103 16.9724 25.5592 16.1105 26.5977C15.2777 27.5996 14.7858 28.8545 14.7858 29.8389C14.7858 31.067 15.4183 31.7413 16.457 32.1017C17.2364 32.373 18.3113 32.4293 19.5 32.4293C20.6888 32.4293 21.762 32.373 22.5415 32.1017C23.5802 31.7413 24.2142 31.067 24.2142 29.8389C24.2142 28.8545 23.7208 27.5996 22.888 26.5977C22.026 25.5592 20.8153 24.8103 19.5 24.8103ZM19.5 26.3341C20.3533 26.3341 21.1052 26.8789 21.6654 27.5531C22.2555 28.264 22.6428 29.1402 22.6428 29.8389C22.6428 30.293 22.3953 30.5322 22.0119 30.6663C21.3692 30.8888 20.4798 30.9055 19.5 30.9055C18.5203 30.9055 17.6293 30.8888 16.9866 30.6663C16.6032 30.5322 16.3572 30.293 16.3572 29.8389C16.3572 29.1402 16.7446 28.264 17.3346 27.5531C17.8948 26.8789 18.6468 26.3341 19.5 26.3341Z" fill="#808A8A"/>
<path d="M36.5955 9.59547L35.9962 8.99621M30.0038 3.00379L29.4045 2.40453M38 6H37.1525M28.8475 6H28M36.5955 2.40453L35.9962 3.00379M30.0038 8.99621L29.4045 9.59547M33 11V10.1525M33 1.84746V1M35.5424 6C35.5424 7.40411 34.4041 8.54237 33 8.54237C31.5959 8.54237 30.4576 7.40411 30.4576 6C30.4576 4.59589 31.5959 3.45763 33 3.45763C34.4041 3.45763 35.5424 4.59589 35.5424 6Z" stroke="#808A8A" stroke-width="1.2" stroke-miterlimit="10" stroke-linecap="round" stroke-linejoin="round"/>
</svg>
