<svg width="32" height="32" viewBox="0 0 32 32" fill="none" xmlns="http://www.w3.org/2000/svg">
<g clip-path="url(#clip0_711_1070)">
<path d="M1.63711 24.1857L1.63711 24.1857C1.12217 22.8557 1.47592 21.5887 2.55914 21.1484L2.55946 21.1482C2.99786 20.9718 3.48342 20.9778 3.92539 21.1679L3.92546 21.1679C4.51579 21.4224 4.99436 21.9783 5.28215 22.7207C5.28215 22.7207 5.28215 22.7207 5.28215 22.7208L5.18891 22.7569C5.72126 24.1295 5.38144 25.5121 4.41512 25.9043L1.63711 24.1857ZM1.63711 24.1857C1.95439 25.005 2.53228 25.6695 3.19541 25.9551L1.63711 24.1857ZM2.87003 21.914L2.87002 21.914C2.56508 22.0375 2.3615 22.2939 2.27669 22.6385C2.19138 22.9851 2.22712 23.421 2.40803 23.8885L2.87003 21.914ZM2.87003 21.914L2.87164 21.9133M2.87003 21.914L2.87164 21.9133M2.87164 21.9133C2.90281 21.9 2.93609 21.8889 2.97051 21.8792C3.17453 21.8217 3.38863 21.8374 3.59771 21.9269C3.96912 22.0865 4.29745 22.4679 4.51115 23.0199L4.51116 23.0199C4.70208 23.5129 4.7489 24.0165 4.67503 24.4233C4.60061 24.833 4.40881 25.125 4.14119 25.2334L4.14093 25.2335C3.91644 25.3252 3.68739 25.2688 3.52408 25.1981L3.52386 25.198M2.87164 21.9133L3.52386 25.198M3.52386 25.198C3.07425 25.0045 2.65229 24.5194 2.40804 23.8885L3.52386 25.198ZM7.38422 20.1818C7.2506 20.8031 6.90873 21.2513 6.42222 21.4448L3.71157 19.6883L3.61866 19.7253C3.61867 19.7253 3.61867 19.7253 3.61868 19.7253C3.88523 20.3949 4.30316 20.929 4.78099 21.2622C5.25873 21.5954 5.80221 21.7311 6.31082 21.5878C6.36057 21.5738 6.41016 21.5571 6.45898 21.5378L6.45918 21.5377C6.98346 21.3292 7.34302 20.8489 7.48197 20.2029M7.38422 20.1818L7.48197 20.2029M7.38422 20.1818L7.48199 20.2029C7.48198 20.2029 7.48198 20.2029 7.48197 20.2029M7.38422 20.1818C7.50851 19.606 7.4376 18.9403 7.18582 18.3074L7.48197 20.2029M7.48197 20.2029C7.61109 19.6047 7.53665 18.9188 7.27874 18.2705C7.01369 17.6041 6.60264 17.1024 6.118 16.8207C5.63159 16.538 5.07475 16.4797 4.53272 16.697L7.48197 20.2029ZM4.26282 18.1162L4.26281 18.1162C4.15367 18.4806 4.19217 18.93 4.38704 19.4198C4.58234 19.9104 4.88973 20.307 5.21904 20.5503C5.55045 20.7953 5.88768 20.8748 6.15581 20.7711C6.39973 20.6739 6.591 20.4211 6.67491 20.0305L6.67491 20.0305C6.76809 19.5972 6.71254 19.0805 6.51175 18.5763C6.15752 17.6872 5.51096 17.2689 4.93522 17.431L4.9005 17.4408L4.26282 18.1162ZM4.26282 18.1162C4.35807 17.7977 4.55713 17.575 4.83766 17.4631L4.26282 18.1162ZM14.7783 23.0893L14.7784 23.0893C14.832 23.0804 14.886 23.0688 14.9387 23.0539L14.9399 23.0536C15.2906 22.9548 15.595 22.7283 15.829 22.3976L15.8291 22.3976C16.2451 21.8081 16.3918 20.9389 16.2351 20.0751C15.981 18.6716 15.0179 17.7747 13.8636 17.9651L13.8634 17.9652C13.3985 18.043 12.9856 18.302 12.7083 18.6948C12.3369 19.2201 12.2195 19.9445 12.3612 20.7273L12.3612 20.7274C12.4958 21.469 12.8226 22.1011 13.2533 22.5279C13.6842 22.9547 14.2248 23.1806 14.7783 23.0893ZM14.6444 22.2752L14.6443 22.2752C14.3594 22.3223 14.0434 22.1733 13.7662 21.8626C13.4909 21.5542 13.2681 21.1002 13.1737 20.58C13.0687 19.998 13.1497 19.5007 13.3826 19.1709C13.5142 18.9856 13.6887 18.861 13.8929 18.8035C13.9273 18.7939 13.9621 18.7859 13.9964 18.7802L13.9965 18.7802C14.3216 18.7267 14.6292 18.8391 14.8813 19.0887C15.1349 19.3398 15.3317 19.7302 15.421 20.2235L15.421 20.2235C15.542 20.8897 15.435 21.5232 15.1525 21.9228C15.0499 22.0679 14.882 22.2362 14.6444 22.2752ZM10.7382 20.3328L10.7383 20.3328C10.7761 20.3262 10.8133 20.3183 10.8502 20.309L10.8517 20.3098L10.8915 20.2986C11.3999 20.1555 11.7927 19.756 12.0264 19.2224C12.2602 18.6887 12.3381 18.015 12.2162 17.3049C12.0982 16.6135 11.811 16.0405 11.3803 15.654C10.9485 15.2665 10.4062 15.1031 9.85618 15.1979C8.70368 15.394 8.09199 16.5629 8.3342 17.9739L8.33421 17.9739C8.45233 18.661 8.74738 19.2848 9.16897 19.7278L9.16898 19.7278C9.62455 20.2064 10.1821 20.4292 10.7382 20.3328ZM9.8956 16.0335L9.93018 16.0238L10.8268 16.2673C11.1102 16.5218 11.3118 16.9253 11.401 17.444C11.4904 17.9647 11.4367 18.463 11.2836 18.8421C11.1297 19.2233 10.8836 19.4673 10.5972 19.5198C10.3384 19.5641 10.0434 19.4483 9.76796 19.1589L9.7679 19.1588C9.46257 18.8385 9.24031 18.3687 9.1485 17.8338C8.98657 16.8899 9.31987 16.1957 9.8956 16.0335ZM9.30941 30.846L9.30943 30.846C9.82727 30.5279 10.4037 30.1743 11.142 29.9664C11.8804 29.7585 12.5559 29.7595 13.1643 29.7605L13.1643 29.7605L13.1739 29.7605C13.6787 29.7613 14.1732 29.7621 14.6289 29.6338C15.1569 29.4851 15.66 29.1591 15.9784 28.6779C16.2986 28.1942 16.4275 27.5605 16.2163 26.8105C15.8078 25.3597 14.6807 24.2709 13.3522 23.6334C12.0244 22.9961 10.4816 22.8027 9.22446 23.1567C7.96737 23.5107 6.75217 24.4807 5.95198 25.7172C5.15136 26.9543 4.75803 28.4712 5.16655 29.922C5.37775 30.672 5.81834 31.1453 6.34389 31.3909C6.86668 31.6352 7.4659 31.6508 7.99393 31.5021C8.44963 31.3738 8.87 31.1158 9.29958 30.852L9.30941 30.846ZM9.99566 16.01C10.2931 15.9591 10.5786 16.0453 10.8267 16.2672L9.99566 16.01ZM13.1669 28.9353L13.1643 28.9352C12.517 28.934 11.7699 28.9326 10.9184 29.1723C10.067 29.4121 9.43037 29.8032 8.87885 30.142L8.87657 30.1434L13.1669 28.9353ZM14.4053 28.8397C14.0632 28.9361 13.6578 28.9359 13.167 28.9353L8.87652 30.1434C8.4582 30.4001 8.11305 30.6116 7.77032 30.7081C7.439 30.8014 7.05883 30.8069 6.72807 30.6627C6.40123 30.5202 6.11116 30.2268 5.96224 29.6979C5.63017 28.5187 5.96407 27.2336 6.65637 26.1623C7.34891 25.0906 8.3903 24.2486 9.44807 23.9508C10.5058 23.6529 11.8336 23.8278 12.9835 24.3806C14.1331 24.9332 15.0885 25.8553 15.4206 27.0345C15.5695 27.5634 15.4752 27.965 15.2707 28.2571C15.0638 28.5527 14.7366 28.7464 14.4053 28.8397Z" fill="#808A8A" stroke="#808A8A" stroke-width="0.2"/>
<path d="M19.401 7.52771C19.2567 8.99285 18.3295 10.0733 17.2902 9.98725M19.401 7.52771L19.5005 7.53753C19.5005 7.53752 19.5005 7.53752 19.5005 7.53751C19.5787 6.74506 19.4025 6.03306 18.9905 5.5396L18.9905 5.53954C18.6818 5.17043 18.2512 4.94595 17.7804 4.9056L17.78 4.90558C16.6147 4.80974 15.7272 5.78077 15.5866 7.2L15.5866 7.20001C15.5001 8.0743 15.7159 8.92813 16.1788 9.4822L17.2902 9.98725M19.401 7.52771C19.4773 6.75424 19.3041 6.0713 18.9137 5.60369L19.401 7.52771ZM17.2902 9.98725C17.2387 9.98288 17.1883 9.97618 17.1385 9.96641L17.1373 9.96617C16.8046 9.90092 16.5022 9.7136 16.2556 9.41812L17.2902 9.98725ZM17.712 5.72912L17.712 5.7291C17.3841 5.70175 17.0868 5.83863 16.8556 6.10789C16.623 6.37874 16.4582 6.78386 16.4087 7.2827L17.712 5.72912ZM17.712 5.72912L17.7137 5.72923M17.712 5.72912L17.7137 5.72923M17.7137 5.72923C17.7475 5.73146 17.7823 5.73651 17.8174 5.74339C18.0254 5.78418 18.2093 5.89478 18.3555 6.06899C18.6149 6.37906 18.7358 6.86758 18.6775 7.45659L18.6775 7.4566C18.6254 7.98269 18.4399 8.45323 18.1905 8.78289C17.9392 9.11494 17.6362 9.28896 17.3485 9.26498L17.3482 9.26496C17.1065 9.24549 16.9275 9.09181 16.8137 8.95499L16.8136 8.95481M17.7137 5.72923L16.8136 8.95481M16.8136 8.95481C16.4996 8.57925 16.342 7.95593 16.4087 7.28271L16.8136 8.95481ZM22.5221 6.22035C22.1225 6.71452 21.6151 6.96019 21.0937 6.91332L19.4673 4.12264L19.3677 4.11372C19.3677 4.11373 19.3677 4.11374 19.3677 4.11376C19.3034 4.83157 19.4354 5.49678 19.7114 6.00981C19.9874 6.52273 20.4112 6.88901 20.9297 6.99071C20.9804 7.00066 21.0322 7.00809 21.0845 7.0129L21.0847 7.01292C21.6467 7.06343 22.1843 6.79708 22.5998 6.28329M22.5221 6.22035L22.5998 6.28329M22.5221 6.22035L22.5998 6.28323C22.5998 6.28325 22.5998 6.28327 22.5998 6.28329M22.5221 6.22035C22.8928 5.76256 23.1299 5.13653 23.1908 4.45811L22.5998 6.28329M22.5998 6.28329C22.985 5.80771 23.228 5.16199 23.2904 4.46706C23.3546 3.75279 23.2142 3.11954 22.9088 2.6495C22.6023 2.17773 22.1317 1.87447 21.5499 1.82372L22.5998 6.28329ZM20.6687 2.96843L20.6686 2.96846C20.4068 3.24439 20.2384 3.6628 20.1913 4.18781C20.1442 4.71377 20.2395 5.20641 20.4236 5.57218C20.6088 5.94029 20.8739 6.1634 21.1599 6.19187C21.4215 6.21523 21.7062 6.07593 21.9574 5.76521L21.9574 5.76519C22.236 5.42062 22.4197 4.93441 22.468 4.39385C22.5531 3.44058 22.1648 2.77553 21.5779 2.6604L21.5425 2.65346L20.6687 2.96843ZM20.6687 2.96843C20.8974 2.72724 21.1755 2.61826 21.4763 2.64505L20.6687 2.96843ZM27.8086 12.1516L27.8086 12.1516C27.8605 12.1679 27.9139 12.1818 27.9677 12.1923L27.9689 12.1926C28.3264 12.2627 28.7003 12.198 29.0583 12.0084L29.0584 12.0084C29.6956 11.6701 30.2188 10.9606 30.4688 10.119C30.8753 8.75195 30.4206 7.51693 29.3046 7.16597L29.3043 7.1659C28.8544 7.02564 28.369 7.07042 27.9443 7.2958C27.3758 7.597 26.9442 8.19047 26.7174 8.95304L26.7174 8.95306C26.5028 9.67555 26.5092 10.3872 26.701 10.9624C26.8929 11.5377 27.2734 11.9832 27.8086 12.1516ZM28.0565 11.3646L28.0563 11.3646C27.7808 11.2781 27.5661 11.0025 27.4589 10.6001C27.3524 10.2007 27.3584 9.69493 27.5089 9.18816C27.6779 8.62141 27.9745 8.21413 28.3312 8.02492C28.5322 7.91896 28.7442 7.88657 28.9523 7.92739C28.9874 7.93426 29.0221 7.94283 29.0553 7.95331L29.0554 7.95334C29.3696 8.05224 29.5934 8.29139 29.7057 8.62791C29.8187 8.96644 29.8182 9.4036 29.6753 9.88411L29.6753 9.88416C29.4826 10.5333 29.1013 11.0503 28.6688 11.2794C28.5118 11.3626 28.2861 11.437 28.0565 11.3646ZM25.447 7.86854L25.4471 7.86857C25.4838 7.87976 25.5206 7.8895 25.5578 7.89786L25.5587 7.89927L25.5993 7.90723C26.1175 8.00888 26.6483 7.82965 27.0977 7.45894C27.5471 7.08814 27.9207 6.52208 28.1323 5.83345C28.3391 5.16313 28.3413 4.52218 28.1313 3.98293C27.9209 3.44233 27.5107 3.05173 26.977 2.88819C25.8601 2.54306 24.7867 3.31018 24.3662 4.67865L24.3662 4.67867C24.1615 5.34516 24.1434 6.03495 24.3197 6.62054L24.3197 6.62056C24.5103 7.25318 24.9073 7.70364 25.447 7.86854ZM26.6351 3.65169L26.6704 3.6586L27.3607 4.28049C27.4987 4.63553 27.4966 5.08654 27.3421 5.5897C27.1869 6.09472 26.9141 6.51515 26.6064 6.78437C26.297 7.0551 25.9673 7.16182 25.6881 7.07937C25.4371 7.0022 25.2261 6.76566 25.1109 6.3831L25.1109 6.38302C24.983 5.95938 24.9966 5.43986 25.1561 4.92108C25.4375 4.00566 26.0482 3.53657 26.6351 3.65169ZM19.4279 16.6058L19.4279 16.6058C20.0336 16.5556 20.7075 16.5002 21.4603 16.6478C22.213 16.7954 22.8154 17.1012 23.3579 17.3766L23.3579 17.3766L23.3664 17.3809C23.8165 17.6094 24.2575 17.8333 24.722 17.9244C25.2603 18.03 25.8563 17.9661 26.3577 17.6804C26.8617 17.3931 27.2627 16.8858 27.4126 16.1212C27.7027 14.6422 27.1882 13.162 26.2904 11.9935C25.393 10.8257 24.1035 9.95687 22.8219 9.70551C21.5403 9.45414 20.0182 9.77148 18.7461 10.5138C17.4734 11.2565 16.4379 12.4327 16.1478 13.9117C15.9978 14.6764 16.1774 15.2975 16.5356 15.7539C16.8919 16.2078 17.4196 16.4921 17.9579 16.5977C18.4225 16.6888 18.9141 16.6482 19.4164 16.6067L19.4279 16.6058ZM26.735 3.67585C27.0235 3.76464 27.2393 3.97039 27.3606 4.28031L26.735 3.67585ZM23.7326 16.6413L23.7302 16.6401C23.1532 16.3469 22.4871 16.0085 21.619 15.8383C20.751 15.668 20.0064 15.7297 19.3614 15.7832L19.3587 15.7834C19.3587 15.7834 19.3587 15.7834 19.3587 15.7834C18.8695 15.8237 18.4661 15.8567 18.1167 15.7882C17.7789 15.7219 17.4372 15.5553 17.2071 15.2773C16.9797 15.0027 16.8532 14.61 16.959 14.0708C17.1948 12.8686 18.0727 11.8725 19.1739 11.2288C20.2755 10.585 21.5848 10.3035 22.6631 10.515C23.7415 10.7265 24.8474 11.4817 25.6242 12.494C26.4007 13.5059 26.8373 14.7599 26.6015 15.9621C26.4957 16.5012 26.2303 16.8171 25.916 16.9855C25.598 17.1559 25.2186 17.1811 24.8808 17.1149C24.532 17.0465 24.1703 16.8634 23.7327 16.6414L23.7326 16.6413Z" fill="#808A8A" stroke="#808A8A" stroke-width="0.2"/>
</g>
<defs>
<clipPath id="clip0_711_1070">
<rect width="32" height="32" fill="white"/>
</clipPath>
</defs>
</svg>
