<svg width="22" height="22" viewBox="0 0 22 22" fill="none" xmlns="http://www.w3.org/2000/svg">
<path d="M12.9434 14.1169L17.1509 9.90935C17.3217 9.7376 17.4175 9.50527 17.4175 9.2631C17.4175 9.02093 17.3217 8.7886 17.1509 8.61685C17.0657 8.53093 16.9643 8.46274 16.8526 8.4162C16.7409 8.36966 16.6211 8.3457 16.5001 8.3457C16.3791 8.3457 16.2593 8.36966 16.1476 8.4162C16.0359 8.46274 15.9345 8.53093 15.8493 8.61685L11.6509 12.8335C11.5657 12.9194 11.4643 12.9876 11.3526 13.0342C11.2409 13.0807 11.1211 13.1047 11.0001 13.1047C10.8791 13.1047 10.7593 13.0807 10.6476 13.0342C10.5359 12.9876 10.4345 12.9194 10.3493 12.8335L6.15092 8.61685C5.97952 8.44424 5.74658 8.34678 5.50333 8.34592C5.26008 8.34507 5.02645 8.44087 4.85384 8.61227C4.68122 8.78366 4.58377 9.01661 4.58291 9.25986C4.58205 9.50311 4.67786 9.73674 4.84925 9.90935L9.05675 14.1169C9.57238 14.6318 10.2713 14.9211 11.0001 14.9211C11.7288 14.9211 12.4278 14.6318 12.9434 14.1169Z" fill="#040707"/>
</svg>
