<svg width="40" height="40" viewBox="0 0 40 40" fill="none" xmlns="http://www.w3.org/2000/svg">
<g clip-path="url(#clip0_711_1046)">
<path d="M36.4629 9.61717C35.4576 9.95052 34.339 9.94212 33.309 9.5777C31.9336 9.10653 30.8258 8.00921 30.3009 6.61325C29.6412 4.93534 30.0025 2.97155 31.1432 1.61334C31.7986 0.848075 32.6289 0.298764 33.6066 0.0378007C33.8486 -0.0424514 34.1567 0.0766531 34.2662 0.251083C34.4411 0.46704 34.4764 0.729295 34.3532 0.980891C33.8481 2.01243 33.9184 3.19034 34.4603 4.20134C35.3148 5.65659 37.1133 6.2509 38.6485 5.58377C38.8905 5.50352 39.164 5.5182 39.3854 5.71872C39.5912 5.87178 39.6422 6.1815 39.5655 6.41767C39.2039 7.57023 38.4252 8.5871 37.3994 9.20123C37.1173 9.34747 36.798 9.50605 36.4629 9.61717ZM33.1833 1.31617C32.715 1.52414 32.3064 1.88091 31.92 2.3357C30.9924 3.40195 30.7598 4.94374 31.2439 6.24786C31.6619 7.35262 32.5356 8.21144 33.6279 8.60789C34.7202 9.00435 35.9004 8.88695 36.8797 8.28825C37.5027 7.92362 37.9822 7.43796 38.2932 6.78689C36.524 7.21552 34.594 6.38034 33.5677 4.71862C33.0133 3.70121 32.8681 2.4533 33.1833 1.31617Z" fill="#808A8A"/>
<path d="M33 14V35H8V14" stroke="#808A8A" stroke-width="1.5" stroke-miterlimit="10"/>
<path d="M35 16L20.5 5L6 16" stroke="#808A8A" stroke-width="1.5" stroke-miterlimit="10" stroke-linecap="square"/>
<path d="M20.5016 22.5711C17.8668 22.5711 15.7309 24.6374 15.7309 27.1863V35H25.2723V27.1863C25.2723 24.6374 23.1364 22.5711 20.5016 22.5711ZM27 15.8709C27 14.8376 26.1341 14 25.066 14C24.1705 14 23.4175 14.5889 23.1974 15.3881H17.8026C17.5825 14.5889 16.8294 14 15.934 14C14.8659 14 14 14.8376 14 15.8709C13.9994 16.2724 14.1328 16.6633 14.3805 16.9854C14.1328 17.3075 13.9994 17.6984 14 18.0998C14 19.1331 14.8659 19.9707 15.934 19.9707C16.735 19.9707 17.4222 19.4997 17.7159 18.8283H23.2841C23.5778 19.4997 24.265 19.9707 25.066 19.9707C26.1341 19.9707 27 19.1331 27 18.0998C27.0006 17.6983 26.8671 17.3075 26.6194 16.9854C26.8671 16.6633 27.0006 16.2724 27 15.8709Z" stroke="#808A8A" stroke-width="1.5" stroke-miterlimit="10"/>
</g>
<defs>
<clipPath id="clip0_711_1046">
<rect width="40" height="40" fill="white"/>
</clipPath>
</defs>
</svg>
