<svg width="18" height="18" viewBox="0 0 18 18" fill="none" xmlns="http://www.w3.org/2000/svg">
<path d="M16.418 3.19922H1.58203C0.709699 3.19922 0 3.90892 0 4.78125V13.2188C0 14.0911 0.709699 14.8008 1.58203 14.8008H16.418C17.2903 14.8008 18 14.0911 18 13.2188V4.78125C18 3.90892 17.2903 3.19922 16.418 3.19922ZM16.9453 13.2188C16.9453 13.5095 16.7087 13.7461 16.418 13.7461H1.58203C1.29125 13.7461 1.05469 13.5095 1.05469 13.2188V4.78125C1.05469 4.49047 1.29125 4.25391 1.58203 4.25391H16.418C16.7087 4.25391 16.9453 4.49047 16.9453 4.78125V13.2188Z" fill="#808A8A"/>
<path d="M13.5703 6.71484H4.42969C4.13845 6.71484 3.90234 6.95095 3.90234 7.24219C3.90234 7.53342 4.13845 7.76953 4.42969 7.76953H13.5703C13.8615 7.76953 14.0977 7.53342 14.0977 7.24219C14.0977 6.95095 13.8615 6.71484 13.5703 6.71484ZM7.94531 10.2305H7.24219C6.95095 10.2305 6.71484 10.4666 6.71484 10.7578C6.71484 11.049 6.95095 11.2852 7.24219 11.2852H7.94531C8.23655 11.2852 8.47266 11.049 8.47266 10.7578C8.47266 10.4666 8.23655 10.2305 7.94531 10.2305ZM10.7578 10.2305H10.0547C9.76345 10.2305 9.52734 10.4666 9.52734 10.7578C9.52734 11.049 9.76345 11.2852 10.0547 11.2852H10.7578C11.049 11.2852 11.2852 11.049 11.2852 10.7578C11.2852 10.4666 11.049 10.2305 10.7578 10.2305ZM13.5703 10.2305H12.8672C12.576 10.2305 12.3398 10.4666 12.3398 10.7578C12.3398 11.049 12.576 11.2852 12.8672 11.2852H13.5703C13.8615 11.2852 14.0977 11.049 14.0977 10.7578C14.0977 10.4666 13.8615 10.2305 13.5703 10.2305ZM5.13281 10.2305H4.42969C4.13845 10.2305 3.90234 10.4666 3.90234 10.7578C3.90234 11.049 4.13845 11.2852 4.42969 11.2852H5.13281C5.42405 11.2852 5.66016 11.049 5.66016 10.7578C5.66016 10.4666 5.42405 10.2305 5.13281 10.2305Z" fill="#808A8A"/>
</svg>
