<svg width="365" height="315" viewBox="0 0 365 315" fill="none" xmlns="http://www.w3.org/2000/svg">
<g opacity="0.23" clip-path="url(#clip0_705_283)">
<path d="M63.0075 64.641C71.4428 60.4071 81.3239 60.7538 89.4395 65.5698C97.555 70.3858 102.594 78.8928 102.918 88.3249L103.702 111.053C103.832 114.824 102.767 118.46 100.624 121.565C98.4807 124.671 95.4593 126.955 91.8859 128.173C88.3126 129.387 84.5243 129.418 80.9305 128.264C77.337 127.109 74.2763 124.876 72.0795 121.805L71.9329 121.599C66.3662 113.939 57.8029 108.898 48.3971 107.752C45.971 107.456 43.6785 106.674 41.6215 105.453C40.503 104.79 39.4533 103.995 38.4893 103.079C35.7536 100.479 33.9661 97.1387 33.3197 93.4191C32.6741 89.7011 33.2309 85.9536 34.9302 82.5829C36.6292 79.212 39.3098 76.5359 42.6828 74.8421L63.0075 64.641ZM110.643 92.8794C108.218 89.8103 107.335 85.8644 108.154 81.7688C108.934 77.8713 111.187 74.2859 114.5 71.673C117.812 69.0627 121.824 67.7075 125.796 67.8566C129.969 68.0139 133.6 69.7915 136.018 72.86C140.885 79.0271 139.155 88.5379 132.157 94.0645C126.579 98.4584 119.321 99.0145 114.141 95.9407C112.796 95.1448 111.61 94.1069 110.643 92.8794ZM97.8185 67.8269C89.9345 63.1484 87.8569 52.0343 93.1872 43.052C98.5188 34.0674 109.27 30.5647 117.154 35.2432C125.038 39.9213 127.114 51.0363 121.782 60.0209C116.452 69.0032 105.702 72.5051 97.8185 67.8269ZM70.7504 57.1757L70.7497 57.1752C69.328 56.8652 67.9656 56.3282 66.7147 55.5849C60.9652 52.173 57.8451 44.6632 59.5237 36.9629C60.4891 32.5302 62.8933 28.6639 66.2922 26.0768C69.8496 23.3678 74.058 22.3665 78.1425 23.2572C82.2281 24.1482 85.6376 26.8111 87.7446 30.7547C89.7577 34.5218 90.3335 39.038 89.3663 43.4697C87.3274 52.8199 78.9764 58.9682 70.7504 57.1757ZM41.7679 37.4062L41.7716 37.4052C49.5917 36.6153 56.6901 43.1814 57.5947 52.0449C58.4933 60.9087 52.866 68.7687 45.0523 69.5665C42.202 69.8584 39.4464 69.171 37.0523 67.7502C32.8792 65.2738 29.8018 60.5677 29.2238 54.9289C28.3259 46.0652 33.9525 38.2047 41.7681 37.406L41.7679 37.4062Z" fill="white" fill-opacity="0.3"/>
</g>
<g opacity="0.21" clip-path="url(#clip1_705_283)">
<path d="M265.799 172.995C252.566 166.353 237.065 166.897 224.333 174.452C211.601 182.007 203.697 195.353 203.188 210.15L201.958 245.806C201.754 251.721 203.425 257.425 206.787 262.297C210.149 267.17 214.889 270.753 220.495 272.663C226.101 274.568 232.044 274.617 237.682 272.806C243.319 270.995 248.121 267.491 251.567 262.674L251.797 262.35C260.53 250.334 273.964 242.425 288.72 240.627C292.526 240.163 296.122 238.936 299.349 237.021C301.104 235.98 302.751 234.733 304.263 233.297C308.555 229.217 311.359 223.977 312.373 218.142C313.386 212.309 312.513 206.43 309.847 201.142C307.181 195.854 302.976 191.656 297.684 188.999L265.799 172.995ZM191.07 217.295C194.873 212.48 196.259 206.29 194.974 199.865C193.751 193.751 190.216 188.126 185.018 184.027C179.822 179.932 173.529 177.806 167.297 178.04C160.751 178.286 155.054 181.075 151.261 185.889C143.625 195.564 146.34 210.484 157.318 219.155C166.069 226.047 177.455 226.92 185.581 222.098C187.691 220.849 189.552 219.221 191.07 217.295ZM211.188 177.993C223.556 170.654 226.816 153.218 218.454 139.127C210.089 125.032 193.222 119.537 180.854 126.876C168.487 134.215 165.23 151.652 173.594 165.747C181.956 179.838 198.821 185.332 211.188 177.993ZM253.652 161.284L253.653 161.283C255.884 160.797 258.021 159.954 259.983 158.788C269.003 153.436 273.898 141.654 271.265 129.574C269.75 122.62 265.978 116.555 260.646 112.496C255.065 108.246 248.463 106.675 242.056 108.073C235.646 109.47 230.297 113.648 226.992 119.835C223.834 125.744 222.931 132.829 224.448 139.782C227.646 154.45 240.747 164.096 253.652 161.284ZM299.12 130.269L299.114 130.268C286.846 129.029 275.71 139.329 274.291 153.234C272.881 167.14 281.709 179.471 293.967 180.722C298.439 181.18 302.762 180.102 306.518 177.873C313.064 173.988 317.892 166.605 318.799 157.759C320.207 143.854 311.381 131.522 299.119 130.269L299.12 130.269Z" fill="white" fill-opacity="0.3"/>
</g>
<defs>
<clipPath id="clip0_705_283">
<rect width="113.189" height="113.189" fill="white" transform="matrix(-0.859978 -0.51033 -0.51033 0.859978 155.104 57.7637)"/>
</clipPath>
<clipPath id="clip1_705_283">
<rect width="177.57" height="177.57" fill="white" transform="translate(121.319 162.205) rotate(-30.6858)"/>
</clipPath>
</defs>
</svg>
