<svg width="75" height="76" viewBox="0 0 75 76" fill="none" xmlns="http://www.w3.org/2000/svg">
<g clip-path="url(#clip0_711_110)">
<path d="M72.0031 43.1281L54.9781 29.8031C52.9656 28.2281 50.1594 28.2281 48.15 29.8031L31.125 43.1281C29.2188 44.6188 28.1281 46.8594 28.1281 49.2813V75.5031H75.0031V49.2813C75.0031 46.8625 73.9063 44.6188 72.0031 43.1281ZM71.875 72.375H31.25V49.2781C31.25 47.825 31.9063 46.4781 33.05 45.5844L50.0781 32.2594C50.95 31.5719 52.175 31.5719 53.0531 32.2594L70.0781 45.5844C71.2219 46.4781 71.8781 47.825 71.8781 49.2781L71.875 72.375ZM43.75 63H59.375V47.375H43.75V63ZM46.875 50.5H56.25V59.875H46.875V50.5ZM20.3125 41.125C23.375 41.125 26.3281 40.4438 29.0938 39.1031L32.4781 37.4625L28.925 36.225C24.1 34.5438 16.0063 30.3063 16.0063 20.8156C16.0063 11.325 24.1 7.08438 28.9219 5.40313L32.4781 4.16563L29.0875 2.52188C26.3188 1.18125 23.3656 0.5 20.3094 0.5C9.1125 0.5 0 9.6125 0 20.8125C0 32.0125 9.1125 41.125 20.3125 41.125ZM20.3125 3.625C21.6031 3.625 22.8688 3.76875 24.1063 4.05313C16.9219 7.69688 12.8813 13.6438 12.8813 20.8125C12.8813 27.9813 16.9188 33.9281 24.1094 37.5719C22.8719 37.8563 21.6031 38 20.3125 38C10.8344 38 3.125 30.2906 3.125 20.8125C3.125 11.3344 10.8344 3.625 20.3125 3.625ZM64.5844 23.4156L59.375 20.8125L64.5844 18.2094L67.1875 13L69.7906 18.2094L75 20.8125L69.7906 23.4156L67.1875 28.625L64.5844 23.4156ZM38.6813 15.725L42.1906 22.7438L45.7 15.725L52.7188 12.2156L45.7 8.70625L42.1906 1.6875L38.6813 8.70625L31.6625 12.2156L38.6813 15.725ZM10.9375 48.5688L7.42813 55.5844L0.409375 59.0938L7.42813 62.6031L10.9375 69.6188L14.4469 62.6031L21.4656 59.0938L14.4469 55.5844L10.9375 48.5688Z" fill="#2BB673"/>
</g>
<defs>
<clipPath id="clip0_711_110">
<rect width="75" height="75" fill="white" transform="translate(0 0.5)"/>
</clipPath>
</defs>
</svg>
