<svg width="75" height="76" viewBox="0 0 75 76" fill="none" xmlns="http://www.w3.org/2000/svg">
<g clip-path="url(#clip0_711_135)">
<path d="M72.0031 43.125L54.9781 29.8031C52.9625 28.2281 50.1625 28.2281 48.1469 29.8031L31.1219 43.125C29.2156 44.6188 28.125 46.8594 28.125 49.2781V75.5H75V49.2781C75 46.8594 73.9062 44.6188 72.0031 43.125ZM71.875 72.375H31.25V49.2781C31.25 47.8281 31.9062 46.4813 33.05 45.5844L50.0781 32.2625C50.95 31.5781 52.1781 31.5781 53.05 32.2625L70.075 45.5844C71.2188 46.4813 71.875 47.825 71.875 49.2781V72.375ZM43.75 63H59.375V47.375H43.75V63ZM46.875 50.5H56.25V59.875H46.875V50.5ZM22.3281 45.7156C22.0594 46.7562 21.9062 47.8344 21.8813 48.9375C19.9 48.1094 18.075 46.975 16.4688 45.5938L9.82187 52.2375L7.6125 50.0281L14.2594 43.3812C11.5313 40.1969 9.76875 36.1625 9.43437 31.7375H0V28.6125H9.43437C9.775 24.1875 11.5406 20.1562 14.2688 16.9781L7.5875 10.2969L9.79688 8.0875L16.4781 14.7688C19.6594 12.0406 23.6906 10.275 28.1125 9.93437V0.5H31.2375V9.93437C35.6625 10.2719 39.6969 12.0313 42.8812 14.7594L49.5562 8.0875L51.7656 10.2969L45.0938 16.9656C46.5625 18.6719 47.75 20.625 48.5906 22.7531C47.5906 23.0125 46.6188 23.4094 45.6969 23.9375C43.1906 17.5406 36.9594 13 29.6844 13C20.2062 13 12.4969 20.7094 12.4969 30.1875C12.4969 37.0312 16.5219 42.9562 22.3281 45.7156Z" fill="#2BB673"/>
</g>
<defs>
<clipPath id="clip0_711_135">
<rect width="75" height="75" fill="white" transform="translate(0 0.5)"/>
</clipPath>
</defs>
</svg>
