<svg width="85" height="85" viewBox="0 0 85 85" fill="none" xmlns="http://www.w3.org/2000/svg">
<g clip-path="url(#clip0_711_99)">
<path d="M62.6117 85C57.221 85.0852 51.9809 83.2211 47.8552 79.7505C43.7295 76.2799 40.9958 71.4363 40.1569 66.1106C39.3179 60.785 40.4303 55.3355 43.2893 50.7646C46.1482 46.1938 50.5616 42.809 55.7174 41.233C55.9707 41.1535 56.242 41.1517 56.4963 41.2279C56.7507 41.3042 56.9763 41.4549 57.1441 41.6606C57.312 41.8663 57.4143 42.1176 57.4379 42.382C57.4615 42.6465 57.4053 42.9119 57.2766 43.1441C55.8694 45.6822 55.13 48.5362 55.1277 51.4383C55.1719 56.0537 57.0447 60.4633 60.3353 63.6999C63.626 66.9366 68.066 68.7361 72.6815 68.7039C76.3269 68.7153 79.886 67.5956 82.8682 65.4991C83.0849 65.3471 83.3421 65.2633 83.6068 65.2585C83.8714 65.2537 84.1315 65.3281 84.3535 65.4721C84.5756 65.6161 84.7496 65.8232 84.8532 66.0668C84.9568 66.3104 84.9852 66.5794 84.9348 66.8392C83.8903 71.982 81.0944 76.6032 77.0236 79.9149C72.9528 83.2267 67.8594 85.0238 62.6117 85ZM53.5711 44.9464C50.2647 46.5609 47.4779 49.0711 45.5277 52.1912C43.5775 55.3114 42.5422 58.9163 42.5397 62.5959C42.6275 67.268 44.3384 71.764 47.3789 75.3127C50.4193 78.8613 54.5998 81.2413 59.2033 82.0445C63.8067 82.8477 68.5462 82.0239 72.6087 79.7146C76.6712 77.4053 79.8036 73.7543 81.4684 69.3879C78.7241 70.6954 75.7213 71.3703 72.6815 71.3628C67.3616 71.3946 62.2462 69.3151 58.4575 65.5804C54.6688 61.8457 52.516 56.7608 52.4714 51.4409C52.4726 49.2299 52.8443 47.0346 53.5711 44.9464ZM71.7186 43.8281H66.4061C66.0539 43.8281 65.7161 43.6882 65.467 43.4391C65.2179 43.1901 65.078 42.8522 65.078 42.5C65.078 42.1478 65.2179 41.8099 65.467 41.5609C65.7161 41.3118 66.0539 41.1719 66.4061 41.1719H71.7186C72.0709 41.1719 72.4087 41.3118 72.6577 41.5609C72.9068 41.8099 73.0467 42.1478 73.0467 42.5C73.0467 42.8522 72.9068 43.1901 72.6577 43.4391C72.4087 43.6882 72.0709 43.8281 71.7186 43.8281Z" fill="#2BB673"/>
<path d="M69.0625 46.4844C68.7103 46.4844 68.3724 46.3444 68.1234 46.0954C67.8743 45.8463 67.7344 45.5085 67.7344 45.1562V39.8438C67.7344 39.4915 67.8743 39.1537 68.1234 38.9046C68.3724 38.6556 68.7103 38.5156 69.0625 38.5156C69.4147 38.5156 69.7526 38.6556 70.0016 38.9046C70.2507 39.1537 70.3906 39.4915 70.3906 39.8438V45.1562C70.3906 45.5085 70.2507 45.8463 70.0016 46.0954C69.7526 46.3444 69.4147 46.4844 69.0625 46.4844ZM81.0156 58.4375H73.0469C72.6946 58.4375 72.3568 58.2976 72.1077 58.0485C71.8587 57.7994 71.7188 57.4616 71.7188 57.1094C71.7188 56.7571 71.8587 56.4193 72.1077 56.1702C72.3568 55.9212 72.6946 55.7812 73.0469 55.7812H81.0156C81.3679 55.7812 81.7057 55.9212 81.9548 56.1702C82.2038 56.4193 82.3438 56.7571 82.3438 57.1094C82.3438 57.4616 82.2038 57.7994 81.9548 58.0485C81.7057 58.2976 81.3679 58.4375 81.0156 58.4375Z" fill="#2BB673"/>
<path d="M77.0312 62.4219C76.679 62.4219 76.3412 62.2819 76.0921 62.0329C75.8431 61.7838 75.7031 61.446 75.7031 61.0938V53.125C75.7031 52.7728 75.8431 52.4349 76.0921 52.1859C76.3412 51.9368 76.679 51.7969 77.0312 51.7969C77.3835 51.7969 77.7213 51.9368 77.9704 52.1859C78.2194 52.4349 78.3594 52.7728 78.3594 53.125V61.0938C78.3594 61.446 78.2194 61.7838 77.9704 62.0329C77.7213 62.2819 77.3835 62.4219 77.0312 62.4219Z" fill="#2BB673"/>
<g clip-path="url(#clip1_711_99)">
<path d="M36.4284 13.357H34.4249C34.0021 11.3014 32.8836 9.45431 31.2579 8.12717C29.6321 6.80002 27.5985 6.07394 25.4999 6.07129L21.857 6.07129C19.7583 6.07394 17.7248 6.80002 16.099 8.12717C14.4733 9.45431 13.3548 11.3014 12.932 13.357H10.9284C8.51396 13.3599 6.1992 14.3203 4.4919 16.0276C2.78461 17.7349 1.82418 20.0497 1.82129 22.4641L1.82129 40.6784C1.82418 43.0929 2.78461 45.4077 4.4919 47.115C6.1992 48.8223 8.51396 49.7827 10.9284 49.7856H36.4284C38.8429 49.7827 41.1577 48.8223 42.865 47.115C44.5723 45.4077 45.5327 43.0929 45.5356 40.6784V22.4641C45.5327 20.0497 44.5723 17.7349 42.865 16.0276C41.1577 14.3203 38.8429 13.3599 36.4284 13.357ZM21.857 9.71415H25.4999C26.626 9.71881 27.7232 10.0713 28.6413 10.7234C29.5594 11.3755 30.2536 12.2953 30.629 13.357H16.7279C17.1032 12.2953 17.7975 11.3755 18.7156 10.7234C19.6337 10.0713 20.7309 9.71881 21.857 9.71415ZM10.9284 16.9999H36.4284C37.8777 16.9999 39.2675 17.5756 40.2923 18.6003C41.317 19.6251 41.8927 21.0149 41.8927 22.4641V27.9284H5.46415V22.4641C5.46415 21.0149 6.03985 19.6251 7.0646 18.6003C8.08935 17.5756 9.47921 16.9999 10.9284 16.9999ZM36.4284 46.1427H10.9284C9.47921 46.1427 8.08935 45.567 7.0646 44.5423C6.03985 43.5175 5.46415 42.1277 5.46415 40.6784V31.5713H21.857V33.3927C21.857 33.8758 22.0489 34.3391 22.3905 34.6807C22.7321 35.0222 23.1954 35.2141 23.6784 35.2141C24.1615 35.2141 24.6248 35.0222 24.9664 34.6807C25.308 34.3391 25.4999 33.8758 25.4999 33.3927V31.5713H41.8927V40.6784C41.8927 42.1277 41.317 43.5175 40.2923 44.5423C39.2675 45.567 37.8777 46.1427 36.4284 46.1427Z" fill="#2BB673"/>
</g>
</g>
<defs>
<clipPath id="clip0_711_99">
<rect width="85" height="85" fill="white"/>
</clipPath>
<clipPath id="clip1_711_99">
<rect width="43.7143" height="43.7143" fill="white" transform="translate(1.82129 6.07129)"/>
</clipPath>
</defs>
</svg>
